<svg id="Layer_1" data-name="Layer 1" xmlns="http://www.w3.org/2000/svg" viewBox="0 0 307.47 307.47"><defs><style>.cls-1{fill:#cc0f35;}.cls-2{font-size:39.36px;font-family:Montserrat-ExtraBold, Montserrat;font-weight:800;letter-spacing:0.07em;}.cls-3{letter-spacing:0.08em;}.cls-4{letter-spacing:0.07em;}.cls-5{font-size:28.94px;font-family:Montserrat-Medium, Montserrat;font-weight:500;letter-spacing:0.07em;}</style></defs><circle class="cls-1" cx="155.33" cy="132.81" r="10.2" transform="translate(-48.42 148.73) rotate(-45)"/><circle class="cls-1" cx="172.94" cy="103.7" r="10.2" transform="translate(-22.67 152.66) rotate(-45)"/><circle class="cls-1" cx="140.39" cy="96.08" r="10.2" transform="translate(-18.32 34.83) rotate(-13.28)"/><path class="cls-1" d="M153.74,4.35A109.89,109.89,0,1,0,263.62,114.24,109.89,109.89,0,0,0,153.74,4.35Zm0,41.12a137.07,137.07,0,0,1,56.16,12l-4.49,10h0a138,138,0,0,0-103.35,0h0l-4.49-10A137.08,137.08,0,0,1,153.74,45.47Zm-21.9,140.66H119.31v-18H95v18H82.46V125.05H95v30.54h36.85ZM106.24,76.82h0a138.16,138.16,0,0,1,95,0h0L153.74,183ZM225,186.13H212.48v-18H188.17v18H175.64V155.59h36.84V125.05H225Z"/><text class="cls-2" transform="translate(31.46 268.42)">A <tspan class="cls-3" x="47.98" y="0">L</tspan><tspan class="cls-4" x="75.09" y="0">A LEÑA</tspan><tspan class="cls-5"><tspan x="46.3" y="31.83">PIZZERIA</tspan></tspan></text></svg>